# xmcd
#
# Track frame offsets:
#	150
#	14941
#	25523
#	37826
#	49004
#	60753
#	72970
#	84695
#	97049
#	110513
#	122721
#	136219
#	145898
#	156948
#
# Disc length: 2242 seconds
#
# Revision: 0
# Processed by: cddbd v1.4PL0 Copyright (c) Steve Scherf et al.
# Submitted via: EasyCDDAExtractor 4.6.9.1
#
DISCID=b908c00e
DTITLE=Big Country Bluegrass - The Real Deal
DYEAR=2002
DGENRE=Bluegrass
TTITLE0=If I Sink Any Lower
TTITLE1=I'll Go Stepping Too
TTITLE2=I Will Say A Prayer
TTITLE3=Double Banjo Blues
TTITLE4=We'll Be Sweethearts In Heaven
TTITLE5=I'll Never Shed Another Tear
TTITLE6=Let's Go Up On The Mountainside
TTITLE7=Blue Ridge Baby Blues
TTITLE8=All I Want Is You
TTITLE9=Are You Sorry Now
TTITLE10=Wine Tears
TTITLE11=Lost Indian
TTITLE12=Blue Bonnet Lane
TTITLE13=Take Me In Your Lifeboat
EXTD=
EXTT0=
EXTT1=
EXTT2=
EXTT3=
EXTT4=
EXTT5=
EXTT6=
EXTT7=
EXTT8=
EXTT9=
EXTT10=
EXTT11=
EXTT12=
EXTT13=
PLAYORDER=
